<svg width="17" height="13" viewBox="0 0 17 13" fill="none" xmlns="http://www.w3.org/2000/svg">
<path d="M1.50931 11.8794C0.527258 10.8395 0 9.67325 0 7.7827C0 4.45595 2.34262 1.47423 5.7493 0L6.60073 1.30979C3.42098 3.02449 2.79933 5.24962 2.55143 6.65255C3.06343 6.38832 3.73371 6.29612 4.39063 6.35695C6.11066 6.51568 7.46646 7.92338 7.46646 9.67325C7.46646 10.5556 7.11488 11.4017 6.48906 12.0256C5.86323 12.6495 5.01443 13 4.12939 13C3.10634 13 2.1281 12.5343 1.50931 11.8794ZM11.0438 11.8794C10.0617 10.8395 9.53449 9.67325 9.53449 7.7827C9.53449 4.45595 11.8771 1.47423 15.2838 0L16.1352 1.30979C12.9555 3.02449 12.3338 5.24962 12.0859 6.65255C12.5979 6.38832 13.2682 6.29612 13.9251 6.35695C15.6451 6.51568 17 7.92338 17 9.67325C17 10.5556 16.6484 11.4017 16.0226 12.0256C15.3968 12.6495 14.548 13 13.6629 13C12.6399 13 11.6626 12.5343 11.0438 11.8794Z" fill="#BB9147"/>
</svg>
