<svg width="13" height="14" viewBox="0 0 13 14" fill="none" xmlns="http://www.w3.org/2000/svg">
<path d="M12.9581 3.91416C12.9508 3.36832 12.8485 2.8279 12.6557 2.31709C12.4884 1.88622 12.233 1.49491 11.9057 1.16817C11.5784 0.841425 11.1865 0.586432 10.7549 0.419481C10.2498 0.230194 9.7162 0.127843 9.17681 0.116787C8.48234 0.0857969 8.26216 0.0771484 6.49928 0.0771484C4.7364 0.0771484 4.51044 0.0771485 3.82102 0.116787C3.28188 0.127925 2.74853 0.230274 2.24367 0.419481C1.81201 0.586316 1.42 0.841268 1.09269 1.16802C0.765392 1.49478 0.510016 1.88615 0.342903 2.31709C0.152921 2.82095 0.050622 3.35353 0.0404265 3.89182C0.00938471 4.58585 0 4.80567 0 6.56562C0 8.32557 -5.37858e-09 8.55043 0.0404265 9.23942C0.051255 9.7785 0.153043 10.3104 0.342903 10.8156C0.510296 11.2464 0.765862 11.6376 1.09327 11.9642C1.42068 12.2908 1.81274 12.5457 2.24439 12.7125C2.74787 12.9094 3.28131 13.019 3.82175 13.0368C4.51694 13.0678 4.73712 13.0771 6.5 13.0771C8.26288 13.0771 8.48884 13.0771 9.17826 13.0368C9.71763 13.0262 10.2513 12.9241 10.7563 12.7348C11.1878 12.5677 11.5797 12.3126 11.9069 11.9859C12.2342 11.6592 12.4897 11.268 12.6571 10.8372C12.847 10.3327 12.9487 9.80084 12.9596 9.26104C12.9906 8.56772 13 8.34791 13 6.58724C12.9986 4.82729 12.9986 4.60387 12.9581 3.91416V3.91416ZM6.49495 9.89381C4.65121 9.89381 3.1576 8.40268 3.1576 6.56201C3.1576 4.72134 4.65121 3.23021 6.49495 3.23021C7.38007 3.23021 8.22894 3.58124 8.85481 4.20608C9.48068 4.83091 9.8323 5.67837 9.8323 6.56201C9.8323 7.44566 9.48068 8.29312 8.85481 8.91795C8.22894 9.54279 7.38007 9.89381 6.49495 9.89381V9.89381ZM9.96513 3.88389C9.53415 3.88389 9.18692 3.53651 9.18692 3.10697C9.18692 3.005 9.20704 2.90402 9.24613 2.8098C9.28522 2.71558 9.34251 2.62998 9.41474 2.55787C9.48697 2.48576 9.57272 2.42856 9.6671 2.38953C9.76147 2.35051 9.86262 2.33042 9.96477 2.33042C10.0669 2.33042 10.1681 2.35051 10.2624 2.38953C10.3568 2.42856 10.4426 2.48576 10.5148 2.55787C10.587 2.62998 10.6443 2.71558 10.6834 2.8098C10.7225 2.90402 10.7426 3.005 10.7426 3.10697C10.7426 3.53651 10.3947 3.88389 9.96513 3.88389Z" fill="white" fill-opacity="0.8"/>
<path d="M6.49551 8.72697C7.69279 8.72697 8.66338 7.75799 8.66338 6.5627C8.66338 5.36741 7.69279 4.39844 6.49551 4.39844C5.29823 4.39844 4.32764 5.36741 4.32764 6.5627C4.32764 7.75799 5.29823 8.72697 6.49551 8.72697Z" fill="white" fill-opacity="0.8"/>
</svg>
