<svg width="55" height="73" viewBox="0 0 55 73" fill="none" xmlns="http://www.w3.org/2000/svg">
<path d="M27.4979 17.1621C25.4963 17.1621 23.5397 17.7477 21.8755 18.8449C20.2113 19.9421 18.9142 21.5015 18.1483 23.326C17.3823 25.1506 17.1819 27.1582 17.5724 29.0951C17.9629 31.032 18.9267 32.8112 20.342 34.2076C21.7573 35.604 23.5605 36.555 25.5236 36.9403C27.4866 37.3256 29.5214 37.1278 31.3706 36.3721C33.2198 35.6163 34.8003 34.3365 35.9123 32.6945C37.0243 31.0525 37.6178 29.122 37.6178 27.1471C37.6147 24.4999 36.5476 21.9619 34.6504 20.09C32.7532 18.2181 30.1809 17.1651 27.4979 17.1621ZM27.4979 32.1396C26.4971 32.1396 25.5188 31.8468 24.6867 31.2982C23.8546 30.7497 23.206 29.9699 22.8231 29.0577C22.4401 28.1454 22.3399 27.1416 22.5351 26.1731C22.7304 25.2047 23.2123 24.3151 23.9199 23.6169C24.6276 22.9187 25.5292 22.4432 26.5107 22.2505C27.4923 22.0579 28.5096 22.1568 29.4342 22.5347C30.3588 22.9125 31.1491 23.5524 31.7051 24.3734C32.2611 25.1945 32.5578 26.1597 32.5578 27.1471C32.5563 28.4708 32.0227 29.7397 31.0741 30.6757C30.1255 31.6116 28.8394 32.1381 27.4979 32.1396Z" fill="#BB9147"/>
<path d="M46.9451 7.94513C42.137 3.20232 35.7188 0.384888 28.9291 0.0366194C22.1394 -0.31165 15.4596 1.83393 10.179 6.05925C4.89835 10.2846 1.39117 16.2901 0.334352 22.9168C-0.72247 29.5435 0.745982 36.3215 4.4563 41.9427L23.5746 70.9013C24 71.5457 24.5818 72.0751 25.267 72.4416C25.9523 72.8081 26.7194 73 27.4988 73C28.2783 73 29.0454 72.8081 29.7306 72.4416C30.4159 72.0751 30.9976 71.5457 31.4231 70.9013L50.542 41.9427C53.9847 36.7282 55.5062 30.5045 54.8513 24.3149C54.1965 18.1252 51.4051 12.3457 46.9451 7.94513ZM46.3024 39.2176L27.4989 67.6983L8.69528 39.2176C2.93957 30.4996 4.17405 18.8327 11.6305 11.4753C13.7144 9.41918 16.1883 7.78818 18.911 6.67541C21.6337 5.56264 24.5519 4.98991 27.4989 4.98991C30.4459 4.98991 33.3641 5.56264 36.0868 6.67541C38.8095 7.78818 41.2834 9.41918 43.3673 11.4753C50.8238 18.8327 52.0581 30.4996 46.3024 39.2176Z" fill="#BB9147"/>
</svg>
