<svg width="85" height="119" viewBox="0 0 85 119" fill="none" xmlns="http://www.w3.org/2000/svg">
<path fill-rule="evenodd" clip-rule="evenodd" d="M81.0494 14.5987C56.121 2.95289 26.2363 14.5252 14.4696 40.9128C2.70291 67.3004 13.7418 97.991 38.6702 109.637L34.775 118.372C4.78111 104.36 -7.98555 67.7894 5.80436 36.8646C19.5943 5.93987 54.9506 -8.1487 84.9445 5.86356L81.0494 14.5987Z" fill="#BB9147"/>
<path d="M69.7485 74.2654H50.5485L48.5685 71.0854C50.9685 66.8454 53.6485 61.6454 56.6085 55.4854C59.6085 49.3254 62.1285 43.8254 64.1685 38.9854H66.0885L72.8685 42.4054L58.8885 65.9854L55.7085 69.8854L69.8085 69.0454L70.4085 58.7854L76.9485 58.3054V68.6254L84.5685 68.2054V74.2654H76.9485V83.8654H69.7485V74.2654Z" fill="white"/>
</svg>
