<svg width="85" height="119" viewBox="0 0 85 119" fill="none" xmlns="http://www.w3.org/2000/svg">
<path fill-rule="evenodd" clip-rule="evenodd" d="M81.0527 14.5965C56.1234 2.95068 26.2378 14.5231 14.4708 40.9106C2.70379 67.2981 13.743 97.9888 38.6722 109.635L34.777 118.37C4.78227 104.358 -7.98484 67.7874 5.80551 36.8626C19.5959 5.93773 54.9532 -8.15074 84.9479 5.86146L81.0527 14.5965Z" fill="#BB9147"/>
<path d="M57.9302 47.0833C57.1702 47.3633 55.9102 47.7033 54.1502 48.1033C52.3902 48.5033 51.0502 48.7433 50.1302 48.8233L49.2902 44.4433C51.5302 44.0033 53.8502 43.2433 56.2502 42.1633C58.6502 41.0433 60.5502 39.8833 61.9502 38.6833H62.0102L66.7502 39.2833V79.6633L73.5902 80.3233V83.8633H50.7302V80.3233L57.9302 79.7233V47.0833Z" fill="white"/>
</svg>
