<svg width="85" height="119" viewBox="0 0 85 119" fill="none" xmlns="http://www.w3.org/2000/svg">
<path fill-rule="evenodd" clip-rule="evenodd" d="M81.0522 14.5988C56.123 2.953 26.2373 14.5254 14.4703 40.9129C2.7033 67.3004 13.7425 97.9911 38.6717 109.637L34.7765 118.372C4.78178 104.36 -7.98533 67.7897 5.80502 36.8649C19.5954 5.94005 54.9527 -8.14842 84.9474 5.86378L81.0522 14.5988Z" fill="#BB9147"/>
<path d="M58.2299 84.8856C57.0699 84.8856 55.7899 84.7856 54.3899 84.5856C53.0299 84.3856 51.9099 84.1656 51.0299 83.9256V79.5456C52.5899 80.0256 54.3899 80.2656 56.4299 80.2656C59.2299 80.2656 61.6499 79.8656 63.6899 79.0656C65.7699 78.2256 67.3499 77.0656 68.4299 75.5856C69.5099 74.1056 70.0499 72.4256 70.0499 70.5456C70.0499 65.4656 67.0299 62.8056 60.9899 62.5656C59.8699 62.9256 58.6699 63.2456 57.3899 63.5256L56.1299 59.8056C57.4499 59.6056 59.0699 59.1256 60.9899 58.3656C63.4299 57.3256 65.2499 56.1256 66.4499 54.7656C67.6899 53.4056 68.3099 51.8056 68.3099 49.9656C68.3099 48.0056 67.6699 46.5656 66.3899 45.6456C65.1499 44.6856 63.5899 44.2056 61.7099 44.2056C59.9099 44.2056 58.1499 44.5256 56.4299 45.1656C54.7499 45.7656 53.3699 46.4856 52.2899 47.3256L50.2499 43.7256C50.9299 43.0456 52.0299 42.3256 53.5499 41.5656C55.0699 40.7656 56.7899 40.1056 58.7099 39.5856C60.6299 39.0256 62.5099 38.7456 64.3499 38.7456C68.1899 38.7456 71.3099 39.5656 73.7099 41.2056C76.1499 42.8056 77.3699 45.2456 77.3699 48.5256C77.3699 51.3656 76.2699 53.7856 74.0699 55.7856C71.9099 57.7856 69.1499 59.3656 65.7899 60.5256C66.2299 60.4856 66.8499 60.4656 67.6499 60.4656C69.9699 60.4656 72.0299 60.8656 73.8299 61.6656C75.6699 62.4256 77.0899 63.5056 78.0899 64.9056C79.0899 66.2656 79.5899 67.8456 79.5899 69.6456C79.6299 72.5256 78.7699 75.1256 77.0099 77.4456C75.2899 79.7656 72.8099 81.5856 69.5699 82.9056C66.3299 84.2256 62.5499 84.8856 58.2299 84.8856Z" fill="white"/>
</svg>
