<svg width="17" height="17" viewBox="0 0 17 17" fill="none" xmlns="http://www.w3.org/2000/svg">
<path d="M7.7915 0H9.20818V1.41667H7.7915V0Z" fill="white" fill-opacity="0.7"/>
<path d="M12.0415 0H13.4582V1.41667H12.0415V0Z" fill="white" fill-opacity="0.7"/>
<path d="M3.5415 0H4.95817V1.41667H3.5415V0Z" fill="white" fill-opacity="0.7"/>
<path d="M16.2917 1.41675H13.4583V3.54175H12.0417V1.41675H9.20833V3.54175H7.79167V1.41675H4.95833V3.54175H3.54167V1.41675H0.708333C0.520472 1.41675 0.340304 1.49138 0.207466 1.62421C0.0746278 1.75705 0 1.93722 0 2.12508L0 4.95841H17V2.12508C17 1.93722 16.9254 1.75705 16.7925 1.62421C16.6597 1.49138 16.4795 1.41675 16.2917 1.41675V1.41675Z" fill="white" fill-opacity="0.7"/>
<path d="M0 16.2917C0 16.4796 0.0746278 16.6598 0.207466 16.7926C0.340304 16.9255 0.520472 17.0001 0.708333 17.0001H16.2917C16.4795 17.0001 16.6597 16.9255 16.7925 16.7926C16.9254 16.6598 17 16.4796 17 16.2917V5.66675H0V16.2917ZM13.4583 7.79175H14.875V9.20841H13.4583V7.79175ZM13.4583 10.6251H14.875V12.0417H13.4583V10.6251ZM10.625 7.79175H12.0417V9.20841H10.625V7.79175ZM10.625 10.6251H12.0417V12.0417H10.625V10.6251ZM7.79167 7.79175H9.20833V9.20841H7.79167V7.79175ZM7.79167 10.6251H9.20833V12.0417H7.79167V10.6251ZM4.95833 7.79175H6.375V9.20841H4.95833V7.79175ZM4.95833 10.6251H6.375V12.0417H4.95833V10.6251ZM4.95833 13.4584H6.375V14.8751H4.95833V13.4584ZM2.125 7.79175H3.54167V9.20841H2.125V7.79175ZM2.125 10.6251H3.54167V12.0417H2.125V10.6251ZM2.125 13.4584H3.54167V14.8751H2.125V13.4584Z" fill="white" fill-opacity="0.7"/>
</svg>
