<svg width="12" height="7" viewBox="0 0 12 7" fill="none" xmlns="http://www.w3.org/2000/svg">
<path d="M5.99059 6.00107C5.79067 6.00146 5.59692 5.93171 5.44298 5.80393L0.309104 1.51822C0.134367 1.37273 0.0244811 1.16366 0.00362066 0.937008C-0.0172397 0.710357 0.0526339 0.484687 0.19787 0.309644C0.343106 0.134602 0.551808 0.0245239 0.778063 0.00362702C1.00432 -0.0172699 1.22959 0.0527256 1.40433 0.198216L5.99059 4.03822L10.5768 0.335359C10.6644 0.26416 10.7651 0.21099 10.8732 0.178906C10.9813 0.146821 11.0946 0.136455 11.2068 0.148403C11.3189 0.160351 11.4275 0.194377 11.5265 0.248526C11.6254 0.302675 11.7127 0.375879 11.7833 0.46393C11.8617 0.552063 11.921 0.655457 11.9576 0.767635C11.9942 0.879812 12.0073 0.998355 11.9961 1.11584C11.9848 1.23332 11.9495 1.34721 11.8923 1.45037C11.835 1.55354 11.7572 1.64375 11.6635 1.71536L6.52964 5.85536C6.37128 5.96294 6.18148 6.01425 5.99059 6.00107Z" fill="white"/>
</svg>
