<svg width="85" height="119" viewBox="0 0 85 119" fill="none" xmlns="http://www.w3.org/2000/svg">
<path fill-rule="evenodd" clip-rule="evenodd" d="M81.0522 14.5965C56.123 2.95068 26.2373 14.5231 14.4703 40.9106C2.7033 67.2981 13.7425 97.9888 38.6717 109.635L34.7765 118.37C4.78178 104.358 -7.98533 67.7874 5.80502 36.8626C19.5954 5.93773 54.9527 -8.15073 84.9474 5.86146L81.0522 14.5965Z" fill="#BB9147"/>
<path d="M49.8902 80.6233C53.2902 78.5433 56.5302 75.9233 59.6102 72.7633C62.7302 69.6033 65.2502 66.2633 67.1702 62.7433C69.1302 59.2233 70.1102 55.9633 70.1102 52.9633C70.1102 50.3233 69.3502 48.3033 67.8302 46.9033C66.3102 45.4633 64.3702 44.7433 62.0102 44.7433C60.4902 44.7433 59.1502 45.0033 57.9902 45.5233C56.8302 46.0033 55.8902 46.5433 55.1702 47.1433C54.4902 47.7033 53.5902 48.5233 52.4702 49.6033L49.4702 46.4233C51.0302 44.3033 53.1102 42.5033 55.7102 41.0233C58.3502 39.5033 61.4102 38.7433 64.8902 38.7433C69.3302 38.7433 72.7902 39.9233 75.2702 42.2833C77.7902 44.6033 79.0502 47.7033 79.0502 51.5833C79.0502 54.5433 78.0702 57.7833 76.1102 61.3033C74.1502 64.7833 71.5702 68.1433 68.3702 71.3833C65.1702 74.5833 61.7902 77.2233 58.2302 79.3033L75.6302 77.8033L77.9102 72.8833L81.6301 73.6633L80.0702 83.8633H51.0902L49.8902 80.6233Z" fill="white"/>
</svg>
