<?xml version="1.0" encoding="utf-8"?><svg viewBox="0 0 20 17" xmlns="http://www.w3.org/2000/svg" xmlns:xlink="http://www.w3.org/1999/xlink"><style>:root>svg{display:none}:root>svg:target{display:block}</style><svg viewBox="0 0 13 14" id="IconInstagram" xmlns="http://www.w3.org/2000/svg"><path d="M12.958 3.914a4.7 4.7 0 0 0-.302-1.597A3.323 3.323 0 0 0 10.755.42 4.776 4.776 0 0 0 9.177.117c-.695-.031-.915-.04-2.678-.04s-1.989 0-2.678.04a4.776 4.776 0 0 0-1.577.302A3.326 3.326 0 0 0 .343 2.317 4.716 4.716 0 0 0 .04 3.892C.01 4.586 0 4.806 0 6.566c0 1.76 0 1.984.04 2.673.011.54.113 1.071.303 1.577a3.322 3.322 0 0 0 1.901 1.896 4.761 4.761 0 0 0 1.578.325c.695.03.915.04 2.678.04s1.989 0 2.678-.04a4.763 4.763 0 0 0 1.578-.302 3.33 3.33 0 0 0 1.901-1.898 4.74 4.74 0 0 0 .303-1.576c.03-.693.04-.913.04-2.674-.001-1.76-.001-1.983-.042-2.673Zm-6.463 5.98a3.334 3.334 0 0 1-3.337-3.332 3.34 3.34 0 0 1 5.697-2.356 3.329 3.329 0 0 1-2.36 5.688Zm3.47-6.01a.777.777 0 1 1 .55-1.326.777.777 0 0 1-.55 1.326Z" fill-opacity=".8"/><path d="M6.496 8.727a2.166 2.166 0 0 0 2.167-2.164c0-1.196-.97-2.165-2.167-2.165a2.166 2.166 0 0 0-2.168 2.165c0 1.195.97 2.164 2.168 2.164Z" fill-opacity=".8"/></svg><svg viewBox="0 0 20 15" id="iconBurger" xmlns="http://www.w3.org/2000/svg"><path d="M.5.5h19m-19 7h19m-19 7h19"/></svg><svg viewBox="0 0 16 16" id="iconClose" xmlns="http://www.w3.org/2000/svg"><path fill-rule="evenodd" clip-rule="evenodd" d="M6.4 8 0 1.6 1.6 0 8 6.4 14.4 0 16 1.6 9.6 8l6.4 6.4-1.6 1.6L8 9.6 1.6 16 0 14.4 6.4 8Z"/></svg><svg viewBox="0 0 9 17" id="iconFacebook" xmlns="http://www.w3.org/2000/svg"><path d="M5.847 17V9.258h2.665l.396-3.031H5.847v-1.93c0-.876.248-1.474 1.53-1.474H9V.12A21.97 21.97 0 0 0 6.622 0C4.266 0 2.648 1.41 2.648 3.997V6.22H0v3.031h2.654V17h3.193Z" fill-opacity=".8"/></svg><svg viewBox="0 0 17 13" id="iconQuote" xmlns="http://www.w3.org/2000/svg"><path d="M1.51 11.88C.526 10.84 0 9.672 0 7.782 0 4.456 2.343 1.474 5.75 0l.85 1.31C3.422 3.024 2.8 5.25 2.552 6.653c.512-.265 1.183-.357 1.84-.296 1.72.159 3.075 1.566 3.075 3.316a3.32 3.32 0 0 1-.977 2.353A3.342 3.342 0 0 1 4.13 13a3.696 3.696 0 0 1-2.62-1.12Zm9.534 0c-.982-1.04-1.51-2.207-1.51-4.097 0-3.327 2.343-6.309 5.75-7.783l.851 1.31c-3.18 1.714-3.801 3.94-4.05 5.343.513-.265 1.183-.357 1.84-.296C15.645 6.516 17 7.923 17 9.673c0 .883-.352 1.729-.977 2.353a3.342 3.342 0 0 1-2.36.974c-1.023 0-2-.466-2.62-1.12Z"/></svg><svg viewBox="0 0 18 10" id="iconVk" xmlns="http://www.w3.org/2000/svg"><path d="M17.587.677c.126-.39 0-.677-.594-.677h-1.97c-.502 0-.73.248-.856.52 0 0-1.002 2.285-2.421 3.766-.458.43-.668.567-.917.567-.125 0-.307-.136-.307-.527V.677c0-.469-.144-.677-.562-.677H6.865c-.313 0-.502.217-.502.423 0 .444.71.547.783 1.797v2.712c0 .594-.114.702-.366.702-.667 0-2.291-2.293-3.255-4.917C3.337.207 3.148 0 2.645 0H.675C.113 0 0 .249 0 .52c0 .49.667 2.91 3.109 6.11C4.737 8.815 7.029 10 9.116 10c1.251 0 1.405-.263 1.405-.717V7.631c0-.525.12-.631.516-.631.291 0 .792.137 1.961 1.19C14.333 9.44 14.554 10 15.304 10h1.969c.562 0 .843-.264.682-.783-.177-.517-.815-1.269-1.661-2.159-.46-.507-1.147-1.053-1.357-1.326-.292-.352-.207-.508 0-.82.001 0 2.4-3.16 2.65-4.235Z"/></svg></svg>