<svg width="20" height="20" viewBox="0 0 20 20" fill="none" xmlns="http://www.w3.org/2000/svg">
<path d="M18.4818 14.5138L15.8802 11.8994C15.5308 11.5503 15.063 11.3579 14.563 11.3579C14.0427 11.3579 13.5515 11.5637 13.1801 11.937L12.1674 12.954C11.3805 12.5146 10.3346 11.9103 9.24866 10.8196C8.16404 9.72968 7.56237 8.68213 7.12274 7.8874L8.13641 6.86993C8.89005 6.11132 8.90546 4.89429 8.17089 4.15708L5.56982 1.54423C5.22141 1.19328 4.75355 1 4.25234 1C3.74369 1 3.26251 1.19672 2.89324 1.55478C2.66986 1.73549 1.54882 2.72956 1.131 4.77962C0.546022 7.6491 1.89008 10.41 5.7702 14.3091C10.1046 18.6617 13.8049 19 14.8358 19C15.0504 19 15.1799 18.9867 15.2144 18.9826C17.2359 18.7446 17.9596 17.8429 18.4881 17.1844C19.1729 16.3311 19.1705 15.2082 18.4818 14.5138ZM17.6185 16.4802C17.1218 17.0991 16.6527 17.6836 15.0845 17.8682C15.0845 17.8682 14.9979 17.878 14.8358 17.878C13.9135 17.878 10.5908 17.5634 6.56003 13.5157C2.98186 9.91997 1.72596 7.4541 2.22524 5.00461C2.58966 3.21649 3.55716 2.45647 3.59476 2.4276L3.62812 2.40284L3.65738 2.37337C3.81889 2.21128 4.03015 2.12197 4.25227 2.12197C4.45451 2.12197 4.64156 2.19812 4.77947 2.33709L7.38113 4.95053C7.68047 5.25092 7.66454 5.75641 7.34606 6.07699L6.1997 7.22754L6.18086 7.24736C5.88212 7.57789 5.91726 8.02458 6.08183 8.31547C6.55668 9.17625 7.20711 10.3551 8.45869 11.6127C9.70609 12.8657 10.878 13.5186 11.7325 13.9947C11.8181 14.0429 11.9947 14.1238 12.2158 14.1238C12.4769 14.1238 12.7166 14.0128 12.894 13.8105L13.9698 12.7301C14.1305 12.5687 14.341 12.4798 14.5629 12.4798C14.7656 12.4798 14.9536 12.5561 15.0912 12.6936L17.6911 15.3063C18.0213 15.6392 17.885 16.1482 17.6185 16.4802Z" fill="#BB9147"/>
<path d="M11.9049 3.74827C12.8645 3.8592 13.9944 4.44307 14.7834 5.23571C15.5798 6.03567 16.1624 7.18218 16.2676 8.15657C16.2987 8.44402 16.5407 8.65705 16.8222 8.65705C16.8423 8.65705 16.8627 8.65592 16.8831 8.65376C17.1897 8.62032 17.4113 8.34357 17.378 8.03555C17.245 6.80385 16.5534 5.42704 15.5732 4.4424C14.6022 3.46696 13.2456 2.77396 12.0326 2.63371C11.7263 2.59803 11.4492 2.81913 11.4139 3.12685C11.3786 3.43457 11.5984 3.71282 11.9049 3.74827Z" fill="#BB9147"/>
<path d="M11.3833 6.09901C11.9023 6.15908 12.6206 6.54578 13.0911 7.01843C13.5657 7.49519 13.9514 8.22358 14.0082 8.75053C14.0392 9.03805 14.2812 9.25108 14.5627 9.25108C14.5828 9.25108 14.6031 9.24996 14.6235 9.24779C14.9302 9.21435 15.1519 8.9376 15.1186 8.62958C15.0215 7.72991 14.4269 6.77362 13.8808 6.22505C13.3396 5.68134 12.3969 5.08692 11.511 4.98437C11.2043 4.94854 10.9276 5.16972 10.8923 5.47744C10.8571 5.78524 11.0769 6.06356 11.3833 6.09901Z" fill="#BB9147"/>
<path d="M18.4818 14.5138L15.8802 11.8994C15.5308 11.5503 15.063 11.3579 14.563 11.3579C14.0427 11.3579 13.5515 11.5637 13.1801 11.937L12.1674 12.954C11.3805 12.5146 10.3346 11.9103 9.24866 10.8196C8.16404 9.72968 7.56237 8.68213 7.12274 7.8874L8.13641 6.86993C8.89005 6.11132 8.90546 4.89429 8.17089 4.15708L5.56982 1.54423C5.22141 1.19328 4.75355 1 4.25234 1C3.74369 1 3.26251 1.19672 2.89324 1.55478C2.66986 1.73549 1.54882 2.72956 1.131 4.77962C0.546022 7.6491 1.89008 10.41 5.7702 14.3091C10.1046 18.6617 13.8049 19 14.8358 19C15.0504 19 15.1799 18.9867 15.2144 18.9826C17.2359 18.7446 17.9596 17.8429 18.4881 17.1844C19.1729 16.3311 19.1705 15.2082 18.4818 14.5138ZM17.6185 16.4802C17.1218 17.0991 16.6527 17.6836 15.0845 17.8682C15.0845 17.8682 14.9979 17.878 14.8358 17.878C13.9135 17.878 10.5908 17.5634 6.56003 13.5157C2.98186 9.91997 1.72596 7.4541 2.22524 5.00461C2.58966 3.21649 3.55716 2.45647 3.59476 2.4276L3.62812 2.40284L3.65738 2.37337C3.81889 2.21128 4.03015 2.12197 4.25227 2.12197C4.45451 2.12197 4.64156 2.19812 4.77947 2.33709L7.38113 4.95053C7.68047 5.25092 7.66454 5.75641 7.34606 6.07699L6.1997 7.22754L6.18086 7.24736C5.88212 7.57789 5.91726 8.02458 6.08183 8.31547C6.55668 9.17625 7.20711 10.3551 8.45869 11.6127C9.70609 12.8657 10.878 13.5186 11.7325 13.9947C11.8181 14.0429 11.9947 14.1238 12.2158 14.1238C12.4769 14.1238 12.7166 14.0128 12.894 13.8105L13.9698 12.7301C14.1305 12.5687 14.341 12.4798 14.5629 12.4798C14.7656 12.4798 14.9536 12.5561 15.0912 12.6936L17.6911 15.3063C18.0213 15.6392 17.885 16.1482 17.6185 16.4802Z" stroke="#BB9147" stroke-width="0.7"/>
<path d="M11.9049 3.74827C12.8645 3.8592 13.9944 4.44307 14.7834 5.23571C15.5798 6.03567 16.1624 7.18218 16.2676 8.15657C16.2987 8.44402 16.5407 8.65705 16.8222 8.65705C16.8423 8.65705 16.8627 8.65592 16.8831 8.65376C17.1897 8.62032 17.4113 8.34357 17.378 8.03555C17.245 6.80385 16.5534 5.42704 15.5732 4.4424C14.6022 3.46696 13.2456 2.77396 12.0326 2.63371C11.7263 2.59803 11.4492 2.81913 11.4139 3.12685C11.3786 3.43457 11.5984 3.71282 11.9049 3.74827Z" stroke="#BB9147" stroke-width="0.7"/>
<path d="M11.3833 6.09901C11.9023 6.15908 12.6206 6.54578 13.0911 7.01843C13.5657 7.49519 13.9514 8.22358 14.0082 8.75053C14.0392 9.03805 14.2812 9.25108 14.5627 9.25108C14.5828 9.25108 14.6031 9.24996 14.6235 9.24779C14.9302 9.21435 15.1519 8.9376 15.1186 8.62958C15.0215 7.72991 14.4269 6.77362 13.8808 6.22505C13.3396 5.68134 12.3969 5.08692 11.511 4.98437C11.2043 4.94854 10.9276 5.16972 10.8923 5.47744C10.8571 5.78524 11.0769 6.06356 11.3833 6.09901Z" stroke="#BB9147" stroke-width="0.7"/>
</svg>
